<svg version="1.1" viewBox="0.0 0.0 548.3753280839895 189.7769028871391" fill="none" stroke="none" stroke-linecap="square" stroke-miterlimit="10" xmlns:xlink="http://www.w3.org/1999/xlink" xmlns="http://www.w3.org/2000/svg"><clipPath id="p.0"><path d="m0 0l548.3753 0l0 189.7769l-548.3753 0l0 -189.7769z" clip-rule="nonzero"/></clipPath><g clip-path="url(#p.0)"><path fill="#000000" fill-opacity="0.0" d="m0 0l548.3753 0l0 189.7769l-548.3753 0z" fill-rule="evenodd"/><path fill="#000000" fill-opacity="0.0" d="m-102.72559 6.1929135l473.5118 0l0 201.5433l-473.5118 0z" fill-rule="evenodd"/><path fill="#000000" d="m75.138084 143.98979q-8.8125 0 -16.750004 -2.390625q-7.921875 -2.40625 -12.453125 -5.875l5.328125 -10.125q4.53125 3.0625 11.203125 5.203125q6.671879 2.125 13.593754 2.125q8.9375 0 12.859375 -2.53125q3.9375 -2.53125 3.9375 -7.0625q0 -3.34375 -2.40625 -5.203125q-2.390625 -1.875 -6.328125 -2.796875q-3.921875 -0.9375 -8.734375 -1.671875q-4.796875 -0.734375 -9.59375 -1.859375q-4.796879 -1.140625 -8.796879 -3.203125q-4.0 -2.078125 -6.40625 -5.734375q-2.390625 -3.671875 -2.390625 -9.796875q0 -6.40625 3.59375 -11.203125q3.609375 -4.796875 10.203125 -7.390625q6.593754 -2.609375 15.671879 -2.609375q6.921875 0 14.046875 1.671875q7.140625 1.65625 11.6875 4.71875l-5.46875 10.140625q-4.8125 -3.203125 -10.015625 -4.390625q-5.1875 -1.203125 -10.390625 -1.203125q-8.390625 0 -12.53125 2.734375q-4.140629 2.71875 -4.140629 6.984375q0 3.609375 2.46875 5.546875q2.4687538 1.921875 6.406254 3.0q3.9375 1.0625 8.734375 1.796875q4.796875 0.734375 9.59375 1.875q4.796875 1.125 8.734375 3.125q3.9375 2.0 6.40625 5.609375q2.46875 3.59375 2.46875 9.59375q0 6.390625 -3.734375 11.0625q-3.734375 4.65625 -10.546875 7.265625q-6.796875 2.59375 -16.25 2.59375zm77.98492 0q-11.328125 0 -19.9375 -4.65625q-8.593742 -4.671875 -13.328117 -12.796875q-4.734375 -8.140625 -4.734375 -18.671875q0 -10.53125 4.59375 -18.65625q4.609375 -8.140625 12.671867 -12.734375q8.078125 -4.609375 18.203125 -4.609375q10.265625 0 18.125 4.53125q7.875 4.53125 12.34375 12.734375q4.46875 8.203125 4.46875 19.125q0 0.8125 -0.078125 1.875q-0.0625 1.0625 -0.1875 2.0l-60.140617 0l0 -9.203125l53.468742 0l-5.203125 3.203125q0.140625 -6.796875 -2.796875 -12.125q-2.9375 -5.34375 -8.078125 -8.34375q-5.125 -3.0 -11.921875 -3.0q-6.65625 0 -11.859375 3.0q-5.203125 3.0 -8.140625 8.40625q-2.9374924 5.390625 -2.9374924 12.328125l0 2.125q0 7.078125 3.2656174 12.609375q3.28125 5.53125 9.140625 8.59375q5.875 3.0625 13.46875 3.0625q6.265625 0 11.390625 -2.125q5.140625 -2.140625 9.0 -6.40625l7.078125 8.265625q-4.796875 5.609375 -11.9375 8.546875q-7.140625 2.921875 -15.9375 2.921875zm79.33124 0q-10.265625 0 -18.328125 -4.53125q-8.0625 -4.53125 -12.734375 -12.65625q-4.671875 -8.140625 -4.671875 -18.9375q0 -10.796875 4.671875 -18.859375q4.671875 -8.078125 12.734375 -12.609375q8.0625 -4.53125 18.328125 -4.53125q8.9375 0 16.140625 4.0q7.203125 4.0 11.531265 12.0q4.328125 8.0 4.328125 20.0q0 12.0 -4.203125 20.0q-4.1875 8.0 -11.39064 12.0625q-7.203125 4.0625 -16.40625 4.0625zm1.0625 -11.203125q6.671875 0 12.0625 -3.0625q5.40625 -3.0625 8.53125 -8.71875q3.1406403 -5.671875 3.1406403 -13.140625q0 -7.609375 -3.1406403 -13.140625q-3.125 -5.53125 -8.53125 -8.59375q-5.390625 -3.0625 -12.0625 -3.0625q-6.796875 0 -12.125 3.0625q-5.328125 3.0625 -8.53125 8.59375q-3.203125 5.53125 -3.203125 13.140625q0 7.46875 3.203125 13.140625q3.203125 5.65625 8.53125 8.71875q5.328125 3.0625 12.125 3.0625zm24.14064 10.40625l0 -19.0625l0.796875 -16.40625l-1.328125 -16.390625l0 -47.062504l12.796875 0l0 98.921875l-12.265625 0zm80.39859 0l0 -14.9375l-0.671875 -2.796875l0 -25.46875q0 -8.125 -4.734375 -12.59375q-4.734375 -4.46875 -14.1875 -4.46875q-6.28125 0 -12.28125 2.078125q-6.0 2.0625 -10.125 5.515625l-5.328125 -9.59375q5.453125 -4.40625 13.125 -6.734375q7.671875 -2.328125 16.0625 -2.328125q14.53125 0 22.390625 7.0625q7.875 7.0625 7.875 21.59375l0 42.671875l-12.125 0zm-23.203125 0.796875q-7.859375 0 -13.796875 -2.65625q-5.9375 -2.671875 -9.140625 -7.40625q-3.1875 -4.734375 -3.1875 -10.734375q0 -5.734375 2.734375 -10.390625q2.734375 -4.671875 8.921875 -7.46875q6.203125 -2.8125 16.734375 -2.8125l22.40625 0l0 9.203125l-21.875 0q-9.59375 0 -12.9375 3.203125q-3.328125 3.203125 -3.328125 7.734375q0 5.203125 4.125 8.34375q4.140625 3.125 11.484375 3.125q7.1875 0 12.59375 -3.203125q5.40625 -3.203125 7.796875 -9.328125l2.53125 8.796875q-2.53125 6.265625 -8.9375 9.9375q-6.390625 3.65625 -16.125 3.65625z" fill-rule="nonzero"/><path fill="#00a69c" d="m363.55215 123.33464c0 -11.376198 9.229279 -20.598427 20.614166 -20.598427c5.467224 0 10.71051 2.170189 14.576416 6.033142c3.8659058 3.8629532 6.0377502 9.1022415 6.0377502 14.565285c0 11.37619 -9.229279 20.59842 -20.614166 20.59842c-11.384888 0 -20.614166 -9.222229 -20.614166 -20.59842z" fill-rule="evenodd"/><path fill="#ebe46e" d="m412.64267 123.333336c0 -11.37619 9.229309 -20.59842 20.614197 -20.59842c5.467224 0 10.71051 2.1701813 14.576416 6.0331345c3.8659058 3.8629532 6.0377502 9.102249 6.0377502 14.565285c0 11.376198 -9.229279 20.598427 -20.614166 20.598427c-11.384888 0 -20.614197 -9.222229 -20.614197 -20.598427z" fill-rule="evenodd"/><path fill="#eb6e85" d="m461.73322 123.33336c0 -11.376198 9.229279 -20.598427 20.614166 -20.598427c5.467224 0 10.71051 2.1701813 14.576447 6.033142c3.8659058 3.8629532 6.0377502 9.1022415 6.0377502 14.565285c0 11.37619 -9.229279 20.59842 -20.614197 20.59842c-11.384888 0 -20.614166 -9.222229 -20.614166 -20.59842z" fill-rule="evenodd"/></g></svg>